<svg width="700.000000" height="200.000000" viewBox="0 0 700 200" fill="none" xmlns="http://www.w3.org/2000/svg" xmlns:xlink="http://www.w3.org/1999/xlink">
	<desc>
			Created with Pixso.
	</desc>
	<g clip-path="url(#clip11_48)">
		<g clip-path="url(#clip11_49)">
			<mask id="mask11_51" mask-type="alpha" maskUnits="userSpaceOnUse" x="0.000000" y="0.000000" width="200.000000" height="200.000000">
				<rect width="200.000000" height="200.000000" fill="#000000"/>
			</mask>
			<g mask="url(#mask11_51)">
				<path d="M150 114.5L50 14.5L50 85.2107L150 185.211L150 114.5Z" fill-rule="evenodd" fill="#19C9DF"/>
				<path d="M54.8593 19.3593L50 14.5L50 85.2107L63.293 98.5037L54.8593 19.3593Z" fill-rule="evenodd" fill="#000000" fill-opacity="0.400000"/>
				<path d="M144.916 180.126L150 185.211L150 114.5L137.939 102.439L144.916 180.126Z" fill-rule="evenodd" fill="#000000" fill-opacity="0.400000"/>
				<path d="M25 14.5L50 14.5L50 185.25L0 185.25L0 39.5C0 25.693 11.1929 14.5 25 14.5Z" fill-rule="evenodd" fill="#19C9DF"/>
				<path d="M150 14.5L200 14.5L200 160.25C200 174.057 188.807 185.25 175 185.25L150 185.25L150 14.5Z" fill-rule="evenodd" fill="#19C9DF"/>
				<path d="M2.74998 202L38.132 202L202.792 37.34L202.702 37.25L167.5 37.25L167.5 2.0477L167.437 1.98456L2.74998 166.671L2.74998 202Z" fill-rule="evenodd" fill="#000000" fill-opacity="0.400000"/>
				<path d="M0 200L35.382 200L200.042 35.34L199.952 35.25L164.75 35.25L164.75 0.047699L164.687 -0.0154419L0 164.671L0 200Z" fill-rule="evenodd" fill="#AE0691" fill-opacity="0.970000"/>
			</g>
		</g>
	</g>
	<path d="M337.68 142.719Q342.25 150.062 345.766 156L358.734 156L358.734 45.1016L343.539 45.1016L343.539 127.211Q338.383 118.734 330.961 107.875Q323.539 96.9766 315.102 85.6875Q306.703 74.3984 298.148 63.7734Q289.594 53.1094 282.094 45.1016L269.75 45.1016L269.75 156L284.945 156L284.945 69.4375Q289.438 74.5547 294.711 81.2734Q299.984 87.9922 305.57 95.6094Q311.195 103.188 316.859 111.352Q322.562 119.516 327.836 127.445Q333.109 135.375 337.68 142.719ZM582.213 155.023Q590.221 158.383 601.119 158.383Q612.018 158.383 619.908 155.023Q627.838 151.664 633.033 145.844Q638.229 139.984 640.69 132.016Q643.19 124.008 643.19 114.711L643.19 45.1016L627.682 45.1016L627.682 112.953Q627.682 121.273 625.768 127.289Q623.854 133.266 620.299 137.133Q616.783 140.961 611.9 142.797Q607.057 144.633 601.119 144.633Q589.283 144.633 581.9 137.133Q574.557 129.594 574.557 112.953L574.557 45.1016L559.049 45.1016L559.049 114.711Q559.049 124.008 561.51 132.016Q564.01 139.984 569.127 145.844Q574.244 151.664 582.213 155.023ZM685.457 45.1016L669.91 45.1016L669.91 156L685.457 156L685.457 45.1016ZM437.988 156.312Q446.386 154.867 451.503 153.617L451.503 72.7969L436.621 72.7969L436.621 143.031Q435.839 143.344 434.003 143.617Q432.168 143.852 429.902 144.086Q427.675 144.32 425.097 144.477Q422.558 144.633 420.175 144.633Q408.808 144.633 404.003 138.07Q399.199 131.508 399.199 116.312L399.199 72.7969L384.316 72.7969L384.316 119.516Q384.316 127.992 386.074 134.984Q387.832 141.938 391.816 147.055Q395.839 152.172 402.402 154.984Q408.964 157.758 418.574 157.758Q429.589 157.758 437.988 156.312ZM522.523 148.188Q525.101 152.484 526.898 156L543.187 156Q537.601 144.945 529.515 133.344Q521.429 121.742 513.773 111.352L540.648 72.7969L524.789 72.7969L504.789 101.938L484.945 72.7969L468.148 72.7969L495.687 112.328Q487.992 122.562 480.219 133.852Q472.484 145.102 466.898 156L482.25 156Q484.008 152.641 486.547 148.344Q489.125 144.008 492.054 139.438Q495.023 134.867 498.226 130.336Q501.429 125.766 504.476 121.742Q507.523 125.766 510.726 130.258Q513.929 134.711 516.937 139.281Q519.984 143.852 522.523 148.188Z" fill="#7E7E7E"/>
	<defs>
		<clipPath id="clip11_49">
			<rect width="200.000000" height="200.000000" fill="white"/>
		</clipPath>
		<clipPath id="clip11_48">
			<rect width="200.000000" height="200.000000" fill="white"/>
		</clipPath>
	</defs>
</svg>
