<svg width="674.000000" height="200.000000" viewBox="0 0 674 200" fill="none" xmlns="http://www.w3.org/2000/svg" xmlns:xlink="http://www.w3.org/1999/xlink">
	<desc>
			Created with Pixso.
	</desc>
	<g clip-path="url(#clip11_48)">
		<g clip-path="url(#clip11_49)">
			<mask id="mask11_51" mask-type="alpha" maskUnits="userSpaceOnUse" x="0.000000" y="0.000000" width="200.000000" height="200.000000">
				<rect width="200.000000" height="200.000000" fill="#000000"/>
			</mask>
			<g mask="url(#mask11_51)">
				<path d="M150 114.5L50 14.5L50 85.2107L150 185.211L150 114.5Z" fill-rule="evenodd" fill="#19C9DF"/>
				<path d="M54.8593 19.3593L50 14.5L50 85.2107L63.293 98.5037L54.8593 19.3593Z" fill-rule="evenodd" fill="#000000" fill-opacity="0.400000"/>
				<path d="M144.916 180.126L150 185.211L150 114.5L137.939 102.439L144.916 180.126Z" fill-rule="evenodd" fill="#000000" fill-opacity="0.400000"/>
				<path d="M25 14.5L50 14.5L50 185.25L0 185.25L0 39.5C0 25.693 11.1929 14.5 25 14.5Z" fill-rule="evenodd" fill="#19C9DF"/>
				<path d="M150 14.5L200 14.5L200 160.25C200 174.057 188.807 185.25 175 185.25L150 185.25L150 14.5Z" fill-rule="evenodd" fill="#19C9DF"/>
				<path d="M2.74998 202L38.132 202L202.792 37.34L202.702 37.25L167.5 37.25L167.5 2.0477L167.437 1.98456L2.74998 166.671L2.74998 202Z" fill-rule="evenodd" fill="#000000" fill-opacity="0.400000"/>
				<path d="M0 200L35.382 200L200.042 35.34L199.952 35.25L164.75 35.25L164.75 0.047699L164.687 -0.0154419L0 164.671L0 200Z" fill-rule="evenodd" fill="#AE0691" fill-opacity="0.970000"/>
			</g>
		</g>
	</g>
	<path d="M311.68 142.719Q316.25 150.062 319.766 156L332.734 156L332.734 45.1016L317.539 45.1016L317.539 127.211Q312.383 118.734 304.961 107.875Q297.539 96.9766 289.102 85.6875Q280.703 74.3984 272.148 63.7734Q263.594 53.1094 256.094 45.1016L243.75 45.1016L243.75 156L258.945 156L258.945 69.4375Q263.438 74.5547 268.711 81.2734Q273.984 87.9922 279.57 95.6094Q285.195 103.188 290.859 111.352Q296.562 119.516 301.836 127.445Q307.109 135.375 311.68 142.719ZM556.213 155.023Q564.221 158.383 575.119 158.383Q586.018 158.383 593.908 155.023Q601.838 151.664 607.033 145.844Q612.229 139.984 614.69 132.016Q617.19 124.008 617.19 114.711L617.19 45.1016L601.682 45.1016L601.682 112.953Q601.682 121.273 599.768 127.289Q597.854 133.266 594.299 137.133Q590.783 140.961 585.9 142.797Q581.057 144.633 575.119 144.633Q563.283 144.633 555.9 137.133Q548.557 129.594 548.557 112.953L548.557 45.1016L533.049 45.1016L533.049 114.711Q533.049 124.008 535.51 132.016Q538.01 139.984 543.127 145.844Q548.244 151.664 556.213 155.023ZM659.457 45.1016L643.91 45.1016L643.91 156L659.457 156L659.457 45.1016ZM411.988 156.312Q420.386 154.867 425.503 153.617L425.503 72.7969L410.621 72.7969L410.621 143.031Q409.839 143.344 408.003 143.617Q406.168 143.852 403.902 144.086Q401.675 144.32 399.097 144.477Q396.558 144.633 394.175 144.633Q382.808 144.633 378.003 138.07Q373.199 131.508 373.199 116.312L373.199 72.7969L358.316 72.7969L358.316 119.516Q358.316 127.992 360.074 134.984Q361.832 141.938 365.816 147.055Q369.839 152.172 376.402 154.984Q382.964 157.758 392.574 157.758Q403.589 157.758 411.988 156.312ZM496.523 148.188Q499.101 152.484 500.898 156L517.187 156Q511.601 144.945 503.515 133.344Q495.429 121.742 487.773 111.352L514.648 72.7969L498.789 72.7969L478.789 101.938L458.945 72.7969L442.148 72.7969L469.687 112.328Q461.992 122.562 454.219 133.852Q446.484 145.102 440.898 156L456.25 156Q458.008 152.641 460.547 148.344Q463.125 144.008 466.054 139.438Q469.023 134.867 472.226 130.336Q475.429 125.766 478.476 121.742Q481.523 125.766 484.726 130.258Q487.929 134.711 490.937 139.281Q493.984 143.852 496.523 148.188Z" fill="#7E7E7E"/>
	<defs>
		<clipPath id="clip11_49">
			<rect width="200.000000" height="200.000000" fill="white"/>
		</clipPath>
		<clipPath id="clip11_48">
			<rect width="200.000000" height="200.000000" fill="white"/>
		</clipPath>
	</defs>
</svg>
